<mxfile host="app.diagrams.net" modified="2023-03-30T20:11:57.869Z" agent="Mozilla/5.0 (Windows NT 10.0; Win64; x64) AppleWebKit/537.36 (KHTML, like Gecko) Chrome/111.0.0.0 Safari/537.36" etag="YrF0rEEl_9bUrnm3QUfo" version="21.1.1" type="device">
  <diagram name="Page-1" id="5fbsbw5N71WKacHdJdYH">
    <mxGraphModel dx="758" dy="427" grid="1" gridSize="10" guides="1" tooltips="1" connect="1" arrows="1" fold="1" page="1" pageScale="1" pageWidth="827" pageHeight="1169" math="0" shadow="0">
      <root>
        <mxCell id="0" />
        <mxCell id="1" parent="0" />
        <mxCell id="i6OKbkr7zQZixPGHKQ_q-28" value="" style="rounded=0;orthogonalLoop=1;jettySize=auto;html=1;dashed=1;strokeColor=#484848;" edge="1" parent="1" source="i6OKbkr7zQZixPGHKQ_q-16" target="i6OKbkr7zQZixPGHKQ_q-26">
          <mxGeometry relative="1" as="geometry" />
        </mxCell>
        <mxCell id="i6OKbkr7zQZixPGHKQ_q-16" value="&lt;font color=&quot;#484848&quot; face=&quot;Montserrat Semibold&quot;&gt;Dialog Agent&lt;/font&gt;" style="html=1;dropTarget=0;whiteSpace=wrap;strokeColor=#484848;" vertex="1" parent="1">
          <mxGeometry x="50" y="245" width="140" height="70" as="geometry" />
        </mxCell>
        <mxCell id="i6OKbkr7zQZixPGHKQ_q-17" value="" style="shape=module;jettyWidth=8;jettyHeight=4;strokeColor=#484848;" vertex="1" parent="i6OKbkr7zQZixPGHKQ_q-16">
          <mxGeometry x="1" width="20" height="20" relative="1" as="geometry">
            <mxPoint x="-27" y="7" as="offset" />
          </mxGeometry>
        </mxCell>
        <mxCell id="i6OKbkr7zQZixPGHKQ_q-18" value="&lt;font color=&quot;#484848&quot; style=&quot;&quot; face=&quot;Montserrat Semibold&quot;&gt;Pre-processor&lt;/font&gt;" style="html=1;dropTarget=0;whiteSpace=wrap;strokeColor=#484848;" vertex="1" parent="1">
          <mxGeometry x="50" y="360" width="140" height="70" as="geometry" />
        </mxCell>
        <mxCell id="i6OKbkr7zQZixPGHKQ_q-19" value="" style="shape=module;jettyWidth=8;jettyHeight=4;strokeColor=#484848;" vertex="1" parent="i6OKbkr7zQZixPGHKQ_q-18">
          <mxGeometry x="1" width="20" height="20" relative="1" as="geometry">
            <mxPoint x="-27" y="7" as="offset" />
          </mxGeometry>
        </mxCell>
        <mxCell id="i6OKbkr7zQZixPGHKQ_q-20" value="&lt;font style=&quot;&quot; face=&quot;Montserrat Semibold&quot;&gt;&lt;font color=&quot;#484848&quot;&gt;Symptom &lt;br&gt;Extractor&lt;/font&gt;&lt;br&gt;&lt;/font&gt;" style="html=1;dropTarget=0;whiteSpace=wrap;strokeColor=#484848;" vertex="1" parent="1">
          <mxGeometry x="240" y="360" width="140" height="70" as="geometry" />
        </mxCell>
        <mxCell id="i6OKbkr7zQZixPGHKQ_q-21" value="" style="shape=module;jettyWidth=8;jettyHeight=4;strokeColor=#484848;" vertex="1" parent="i6OKbkr7zQZixPGHKQ_q-20">
          <mxGeometry x="1" width="20" height="20" relative="1" as="geometry">
            <mxPoint x="-27" y="7" as="offset" />
          </mxGeometry>
        </mxCell>
        <mxCell id="i6OKbkr7zQZixPGHKQ_q-24" value="&lt;font style=&quot;&quot; face=&quot;Montserrat Semibold&quot;&gt;&lt;font color=&quot;#484848&quot;&gt;Disease&lt;br&gt;Classifier&lt;/font&gt;&lt;br&gt;&lt;/font&gt;" style="html=1;dropTarget=0;whiteSpace=wrap;strokeColor=#484848;" vertex="1" parent="1">
          <mxGeometry x="430" y="245" width="140" height="70" as="geometry" />
        </mxCell>
        <mxCell id="i6OKbkr7zQZixPGHKQ_q-25" value="" style="shape=module;jettyWidth=8;jettyHeight=4;strokeColor=#484848;" vertex="1" parent="i6OKbkr7zQZixPGHKQ_q-24">
          <mxGeometry x="1" width="20" height="20" relative="1" as="geometry">
            <mxPoint x="-27" y="7" as="offset" />
          </mxGeometry>
        </mxCell>
        <mxCell id="i6OKbkr7zQZixPGHKQ_q-26" value="" style="ellipse;whiteSpace=wrap;html=1;align=center;aspect=fixed;resizable=0;points=[];outlineConnect=0;sketch=0;strokeColor=#484848;" vertex="1" parent="1">
          <mxGeometry x="115" y="340" width="10" height="10" as="geometry" />
        </mxCell>
        <mxCell id="i6OKbkr7zQZixPGHKQ_q-27" value="" style="rounded=0;orthogonalLoop=1;jettySize=auto;html=1;endArrow=none;endFill=0;sketch=0;sourcePerimeterSpacing=0;targetPerimeterSpacing=0;exitX=0.5;exitY=0;exitDx=0;exitDy=0;strokeColor=#484848;" edge="1" parent="1" source="i6OKbkr7zQZixPGHKQ_q-18" target="i6OKbkr7zQZixPGHKQ_q-26">
          <mxGeometry relative="1" as="geometry">
            <mxPoint x="140" y="130" as="sourcePoint" />
            <mxPoint x="140" y="340" as="targetPoint" />
          </mxGeometry>
        </mxCell>
        <mxCell id="i6OKbkr7zQZixPGHKQ_q-32" value="" style="ellipse;whiteSpace=wrap;html=1;align=center;aspect=fixed;resizable=0;points=[];outlineConnect=0;sketch=0;strokeColor=#484848;" vertex="1" parent="1">
          <mxGeometry x="305" y="340" width="10" height="10" as="geometry" />
        </mxCell>
        <mxCell id="i6OKbkr7zQZixPGHKQ_q-33" value="" style="rounded=0;orthogonalLoop=1;jettySize=auto;html=1;endArrow=none;endFill=0;sketch=0;sourcePerimeterSpacing=0;targetPerimeterSpacing=0;exitX=0.5;exitY=0;exitDx=0;exitDy=0;strokeColor=#484848;" edge="1" parent="1" source="i6OKbkr7zQZixPGHKQ_q-20" target="i6OKbkr7zQZixPGHKQ_q-32">
          <mxGeometry relative="1" as="geometry">
            <mxPoint x="145" y="380" as="sourcePoint" />
            <mxPoint x="145" y="370" as="targetPoint" />
          </mxGeometry>
        </mxCell>
        <mxCell id="i6OKbkr7zQZixPGHKQ_q-34" value="" style="rounded=0;orthogonalLoop=1;jettySize=auto;html=1;dashed=1;exitX=0.5;exitY=1;exitDx=0;exitDy=0;edgeStyle=orthogonalEdgeStyle;strokeColor=#484848;" edge="1" parent="1" source="i6OKbkr7zQZixPGHKQ_q-22" target="i6OKbkr7zQZixPGHKQ_q-32">
          <mxGeometry relative="1" as="geometry">
            <mxPoint x="145" y="340" as="sourcePoint" />
            <mxPoint x="145" y="360" as="targetPoint" />
            <Array as="points">
              <mxPoint x="310" y="335" />
              <mxPoint x="310" y="335" />
            </Array>
          </mxGeometry>
        </mxCell>
        <mxCell id="i6OKbkr7zQZixPGHKQ_q-37" value="" style="ellipse;whiteSpace=wrap;html=1;align=center;aspect=fixed;resizable=0;points=[];outlineConnect=0;sketch=0;strokeColor=#484848;" vertex="1" parent="1">
          <mxGeometry x="409" y="275" width="10" height="10" as="geometry" />
        </mxCell>
        <mxCell id="i6OKbkr7zQZixPGHKQ_q-38" value="" style="rounded=0;orthogonalLoop=1;jettySize=auto;html=1;endArrow=none;endFill=0;sketch=0;sourcePerimeterSpacing=0;targetPerimeterSpacing=0;exitX=0;exitY=0.5;exitDx=0;exitDy=0;strokeColor=#484848;" edge="1" parent="1" source="i6OKbkr7zQZixPGHKQ_q-24" target="i6OKbkr7zQZixPGHKQ_q-37">
          <mxGeometry relative="1" as="geometry">
            <mxPoint x="320" y="380" as="sourcePoint" />
            <mxPoint x="320" y="370" as="targetPoint" />
          </mxGeometry>
        </mxCell>
        <mxCell id="i6OKbkr7zQZixPGHKQ_q-39" value="" style="rounded=0;orthogonalLoop=1;jettySize=auto;html=1;dashed=1;exitX=1;exitY=0.5;exitDx=0;exitDy=0;strokeColor=#484848;" edge="1" parent="1" source="i6OKbkr7zQZixPGHKQ_q-22" target="i6OKbkr7zQZixPGHKQ_q-37">
          <mxGeometry relative="1" as="geometry">
            <mxPoint x="400" y="310" as="sourcePoint" />
            <mxPoint x="320" y="360" as="targetPoint" />
          </mxGeometry>
        </mxCell>
        <mxCell id="i6OKbkr7zQZixPGHKQ_q-40" value="" style="ellipse;whiteSpace=wrap;html=1;align=center;aspect=fixed;resizable=0;points=[];outlineConnect=0;sketch=0;strokeColor=#484848;" vertex="1" parent="1">
          <mxGeometry x="220" y="275" width="10" height="10" as="geometry" />
        </mxCell>
        <mxCell id="i6OKbkr7zQZixPGHKQ_q-41" value="" style="rounded=0;orthogonalLoop=1;jettySize=auto;html=1;endArrow=none;endFill=0;sketch=0;sourcePerimeterSpacing=0;targetPerimeterSpacing=0;exitX=0;exitY=0.5;exitDx=0;exitDy=0;strokeColor=#484848;" edge="1" parent="1" source="i6OKbkr7zQZixPGHKQ_q-22" target="i6OKbkr7zQZixPGHKQ_q-40">
          <mxGeometry relative="1" as="geometry">
            <mxPoint x="320" y="380" as="sourcePoint" />
            <mxPoint x="320" y="370" as="targetPoint" />
          </mxGeometry>
        </mxCell>
        <mxCell id="i6OKbkr7zQZixPGHKQ_q-42" value="" style="rounded=0;orthogonalLoop=1;jettySize=auto;html=1;dashed=1;exitX=1;exitY=0.5;exitDx=0;exitDy=0;strokeColor=#484848;" edge="1" parent="1" source="i6OKbkr7zQZixPGHKQ_q-16" target="i6OKbkr7zQZixPGHKQ_q-40">
          <mxGeometry relative="1" as="geometry">
            <mxPoint x="375" y="310" as="sourcePoint" />
            <mxPoint x="330" y="360" as="targetPoint" />
          </mxGeometry>
        </mxCell>
        <mxCell id="i6OKbkr7zQZixPGHKQ_q-43" value="" style="ellipse;whiteSpace=wrap;html=1;align=center;aspect=fixed;resizable=0;points=[];outlineConnect=0;sketch=0;strokeColor=#484848;" vertex="1" parent="1">
          <mxGeometry x="20" y="275" width="10" height="10" as="geometry" />
        </mxCell>
        <mxCell id="i6OKbkr7zQZixPGHKQ_q-44" value="" style="rounded=0;orthogonalLoop=1;jettySize=auto;html=1;endArrow=none;endFill=0;sketch=0;sourcePerimeterSpacing=0;targetPerimeterSpacing=0;exitX=0;exitY=0.5;exitDx=0;exitDy=0;strokeColor=#484848;" edge="1" parent="1" source="i6OKbkr7zQZixPGHKQ_q-16" target="i6OKbkr7zQZixPGHKQ_q-43">
          <mxGeometry relative="1" as="geometry">
            <mxPoint x="320" y="275" as="sourcePoint" />
            <mxPoint x="300" y="275" as="targetPoint" />
          </mxGeometry>
        </mxCell>
        <mxCell id="i6OKbkr7zQZixPGHKQ_q-48" value="&lt;font style=&quot;&quot; face=&quot;Montserrat Semibold&quot;&gt;&lt;font color=&quot;#484848&quot;&gt;Symptom&lt;br&gt;Rules&lt;/font&gt;&lt;br&gt;&lt;/font&gt;" style="html=1;dropTarget=0;whiteSpace=wrap;strokeColor=#484848;" vertex="1" parent="1">
          <mxGeometry x="430" y="360" width="140" height="70" as="geometry" />
        </mxCell>
        <mxCell id="i6OKbkr7zQZixPGHKQ_q-49" value="" style="shape=module;jettyWidth=8;jettyHeight=4;strokeColor=#484848;" vertex="1" parent="i6OKbkr7zQZixPGHKQ_q-48">
          <mxGeometry x="1" width="20" height="20" relative="1" as="geometry">
            <mxPoint x="-27" y="7" as="offset" />
          </mxGeometry>
        </mxCell>
        <mxCell id="i6OKbkr7zQZixPGHKQ_q-22" value="&lt;font style=&quot;&quot; face=&quot;Montserrat Semibold&quot;&gt;&lt;font color=&quot;#484848&quot;&gt;Symptom &lt;br&gt;Explainer&lt;/font&gt;&lt;br&gt;&lt;/font&gt;" style="html=1;dropTarget=0;whiteSpace=wrap;strokeColor=#484848;" vertex="1" parent="1">
          <mxGeometry x="240" y="245" width="140" height="70" as="geometry" />
        </mxCell>
        <mxCell id="i6OKbkr7zQZixPGHKQ_q-23" value="" style="shape=module;jettyWidth=8;jettyHeight=4;strokeColor=#484848;" vertex="1" parent="i6OKbkr7zQZixPGHKQ_q-22">
          <mxGeometry x="1" width="20" height="20" relative="1" as="geometry">
            <mxPoint x="-27" y="7" as="offset" />
          </mxGeometry>
        </mxCell>
        <mxCell id="i6OKbkr7zQZixPGHKQ_q-52" value="" style="ellipse;whiteSpace=wrap;html=1;align=center;aspect=fixed;resizable=0;points=[];outlineConnect=0;sketch=0;strokeColor=#484848;" vertex="1" parent="1">
          <mxGeometry x="409" y="390" width="10" height="10" as="geometry" />
        </mxCell>
        <mxCell id="i6OKbkr7zQZixPGHKQ_q-53" value="" style="rounded=0;orthogonalLoop=1;jettySize=auto;html=1;endArrow=none;endFill=0;sketch=0;sourcePerimeterSpacing=0;targetPerimeterSpacing=0;exitX=0;exitY=0.5;exitDx=0;exitDy=0;strokeColor=#484848;" edge="1" parent="1" source="i6OKbkr7zQZixPGHKQ_q-48" target="i6OKbkr7zQZixPGHKQ_q-52">
          <mxGeometry relative="1" as="geometry">
            <mxPoint x="520" y="380" as="sourcePoint" />
            <mxPoint x="325" y="365" as="targetPoint" />
          </mxGeometry>
        </mxCell>
        <mxCell id="i6OKbkr7zQZixPGHKQ_q-54" value="" style="rounded=0;orthogonalLoop=1;jettySize=auto;html=1;dashed=1;exitX=1;exitY=0.5;exitDx=0;exitDy=0;strokeColor=#484848;" edge="1" parent="1" source="i6OKbkr7zQZixPGHKQ_q-20" target="i6OKbkr7zQZixPGHKQ_q-52">
          <mxGeometry relative="1" as="geometry">
            <mxPoint x="420" y="325" as="sourcePoint" />
            <mxPoint x="484" y="360" as="targetPoint" />
          </mxGeometry>
        </mxCell>
      </root>
    </mxGraphModel>
  </diagram>
</mxfile>
